<?xml version="1.0" encoding="UTF-8" standalone="no"?>
<svg
   width="1280"
   height="720"
   version="1.1"
   id="svg33"
   sodipodi:docname="home-bg.svg"
   inkscape:version="1.1 (c68e22c387, 2021-05-23)"
   xmlns:inkscape="http://www.inkscape.org/namespaces/inkscape"
   xmlns:sodipodi="http://sodipodi.sourceforge.net/DTD/sodipodi-0.dtd"
   xmlns="http://www.w3.org/2000/svg"
   xmlns:svg="http://www.w3.org/2000/svg">
  <sodipodi:namedview
     id="namedview35"
     pagecolor="#ffffff"
     bordercolor="#666666"
     borderopacity="1.0"
     inkscape:pageshadow="2"
     inkscape:pageopacity="0.0"
     inkscape:pagecheckerboard="0"
     showgrid="false"
     inkscape:zoom="0.36111111"
     inkscape:cx="962.30769"
     inkscape:cy="430.61538"
     inkscape:window-width="1366"
     inkscape:window-height="705"
     inkscape:window-x="-8"
     inkscape:window-y="-8"
     inkscape:window-maximized="1"
     inkscape:current-layer="g31" />
  <defs
     id="defs5">
    <clipPath
       id="A">
      <path
         fill="#fff"
         stroke="#707070"
         stroke-width="1"
         d="M0 0h1280v720H0z"
         id="path2" />
    </clipPath>
  </defs>
  <g
     clip-path="url(#A)"
     fill="none"
     stroke-linejoin="round"
     stroke-width="13"
     id="g31">
    <circle
       cx="1007"
       cy="-16"
       r="63"
       stroke="#09f755"
       id="circle7" />
    <g
       stroke-linecap="round"
       id="g19">
      <path
         d="M1007.5 121c77.6 0 140.5-62.008 140.5-138.5S1085.1-156 1007.5-156 867-93.992 867-17.5"
         stroke="#efc518"
         id="path9" />
      <path
         d="m 1410,602 h -104.8 c -33.533,0 -64.564,11.6 -89.845,31.3"
         stroke="#f80332"
         id="path11"
         sodipodi:nodetypes="csc" />
      <g
         stroke="#09f755"
         id="g15">
        <path
           d="m 1151.5,141 c -31.756,0 -57.5,25.744 -57.5,57.5 0,31.756 25.744,57.5 57.5,57.5 31.756,0 57.5,-25.744 57.5,-57.5 V 141 M 894.5,593.582 c -36.727,0 -66.5,-29.455 -66.5,-65.8 0,-36.345 29.773,-65.782 66.5,-65.782 36.727,0 66.5,29.455 66.5,65.8"
           id="path13"
           sodipodi:nodetypes="csssccssc" />
      </g>
      <path
         d="M885.5 295.708c-31.756 0-57.5 25.36-57.5 56.646S853.744 409 885.5 409s57.5-25.36 57.5-56.646V121"
         stroke="#f80332"
         id="path17" />
    </g>
    <g
       stroke="#efc518"
       id="g27">
      <path
         d="M1089.5 598a59.45 59.45 0 0 1-59.5-59.4V369.4a59.45 59.45 0 0 1 59.5-59.4h0a59.45 59.45 0 0 1 59.5 59.4v169.2a59.45 59.45 0 0 1-59.5 59.4z"
         id="path21" />
    </g>
    <path
       d="M867.5 53v184"
       stroke="#09f755"
       stroke-linecap="round"
       id="path29" />
    <path
       d="m 961,527.8 v 184"
       stroke="#09f755"
       stroke-linecap="round"
       id="path29-3" />
  </g>
</svg>
