<?xml version="1.0" encoding="utf-8"?>
<!-- Generator: Adobe Illustrator 21.1.0, SVG Export Plug-In . SVG Version: 6.00 Build 0)  -->
<svg version="1.1" id="Layer_1" xmlns="http://www.w3.org/2000/svg" xmlns:xlink="http://www.w3.org/1999/xlink" x="0px" y="0px"
	 viewBox="0 0 118 20" width="118px" height="20px" style="enable-background:new 0 0 118 20;" xml:space="preserve">
<style type="text/css">
	.st0{fill-rule:evenodd;clip-rule:evenodd;fill:#FFFFFF;}
</style>
<path class="st0" d="M103.1,6.9V5.5h3.5c0,4.8,0,9.7,0,14.5h-3.5v-1.5c-1.5,1.7-4.3,1.8-6.3,1c-1-0.4-1.9-0.9-2.7-1.7
	c-1.3-1.3-2.1-3.1-2.1-5.1c0-2,0.8-3.8,2.1-5.1C95,6.8,96,6.2,97.1,5.8C99,5.2,101.6,5.4,103.1,6.9 M103.1,12.7c0-1-0.4-2-1.1-2.6
	c-0.7-0.7-1.6-1.1-2.7-1.1c-1,0-2,0.4-2.7,1.1c-0.7,0.7-1.1,1.6-1.1,2.7c0,1,0.4,2,1.1,2.7c0.7,0.7,1.6,1.1,2.7,1.1
	c1,0,2-0.4,2.7-1.1C102.7,14.7,103.1,13.7,103.1,12.7z M13.5,13.2c0,1.8-0.7,3.5-2,4.8c-1.3,1.3-3,2-4.8,2C5,20,3.3,19.3,2,18
	c-1.3-1.3-2-3-2-4.8v-0.1h3.5v0.1c0,0.9,0.3,1.7,1,2.3c0.6,0.6,1.5,1,2.3,1c0.9,0,1.7-0.3,2.3-1c0.6-0.6,1-1.5,1-2.3
	c0-1.9-1.2-2.9-2.9-3.3L5.7,9.5C4.4,9.1,3.4,8.8,2.5,7.6c-0.6-0.8-1-1.8-1-2.9c0-1.3,0.5-2.5,1.4-3.4C3.8,0.5,5,0,6.2,0H11v3.5H6.2
	c-0.3,0-0.7,0.1-0.9,0.4C5.1,4.1,4.9,4.4,4.9,4.7c0,1,0.9,1.2,1.7,1.4l1.2,0.3C11.2,7.4,13.5,9.5,13.5,13.2z M49.5,6.9V5.5H53
	c0,4.8,0,9.7,0,14.5h-3.5v-1.5c-1.5,1.7-4.3,1.8-6.3,1c-1-0.4-1.9-0.9-2.7-1.7c-1.3-1.3-2.1-3.1-2.1-5.1c0-2,0.8-3.8,2.1-5.1
	c0.8-0.8,1.8-1.4,2.9-1.8C45.5,5.2,48.1,5.4,49.5,6.9z M49.5,12.7c0-1-0.4-2-1.1-2.6C47.7,9.4,46.8,9,45.7,9c-1,0-2,0.4-2.7,1.1
	c-0.7,0.7-1.1,1.6-1.1,2.7c0,1,0.4,2,1.1,2.7c0.7,0.7,1.6,1.1,2.7,1.1c1,0,2-0.4,2.7-1.1C49.1,14.7,49.5,13.7,49.5,12.7z M90.5,16.4
	c-0.7,1.1-1.6,2-2.7,2.7c-1.1,0.6-2.3,1-3.6,1c-2,0-3.8-0.8-5.1-2.1c-1.3-1.3-2.1-3.1-2.1-5.1c0-2,0.8-3.8,2.1-5.1
	c1.3-1.3,3.1-2.1,5.1-2.1c1.3,0,2.5,0.3,3.6,1l0,0c1.1,0.6,2,1.5,2.7,2.6l-3,1.7c-0.3-0.6-0.8-1.1-1.4-1.4h0C85.5,9.1,84.9,9,84.2,9
	c-1,0-2,0.4-2.7,1.1c-0.7,0.7-1.1,1.6-1.1,2.7c0,1,0.4,2,1.1,2.7c0.7,0.7,1.6,1.1,2.7,1.1c0.7,0,1.3-0.2,1.9-0.5
	c0.6-0.3,1.1-0.8,1.4-1.4L90.5,16.4z M55.7,10.5V20h3.5l0-9.5c0-0.4,0.2-0.8,0.5-1.1c0.3-0.3,0.7-0.5,1.1-0.5h3.4V5.5h-3.4
	c-1.4,0-2.7,0.6-3.6,1.5C56.3,7.9,55.7,9.2,55.7,10.5z M15.9,10.5V20h3.5v-9.3c0-0.5,0-0.9,0.5-1.4c0.3-0.3,0.7-0.5,1.1-0.5h1.8
	c0.4,0,0.8,0.2,1.1,0.5c0.3,0.3,0.5,0.7,0.5,1.1l0,0.3V20h0h3.5h0l0-9.1l0-0.4c0-0.4,0.2-0.8,0.5-1.1c0.3-0.3,0.7-0.5,1.1-0.5h1.8
	c0.4,0,0.8,0.2,1.1,0.5c0.3,0.3,0.5,0.7,0.5,1.1l0,9.5h3.5l0-9c0-0.7,0-1.3-0.2-2c-0.2-0.7-0.7-1.4-1.2-2c-0.6-0.6-1.4-1.1-2.3-1.3
	c-0.4-0.1-0.8-0.1-1.2-0.2h-1.7c-0.5,0-0.9,0-1.4,0.2c-0.7,0.2-1.4,0.6-2,1.1c-0.6-0.5-1.4-0.9-2.2-1.1c-0.4-0.1-0.7-0.1-1.1-0.1
	h-1.8c-0.4,0-0.8,0-1.1,0.1C18.8,5.8,18,6.3,17.3,7C16.4,7.9,15.9,9.2,15.9,10.5z M66.4,1.9h3.5l0,3.6h4.7v3.4h-4.7l0,6
	c0,0.4,0.2,0.8,0.5,1.1c0.3,0.3,0.7,0.5,1.1,0.5h3.5V20h-3.5c-1.4,0-2.7-0.6-3.6-1.5c-0.9-0.9-1.5-2.2-1.5-3.6V1.9z M109.4,1.9h3.5
	l0,3.6h4.7v3.4h-4.7l0,6c0,0.4,0.2,0.8,0.5,1.1c0.3,0.3,0.7,0.5,1.1,0.5h3.5V20h-3.5c-1.4,0-2.7-0.6-3.6-1.5
	c-0.9-0.9-1.5-2.2-1.5-3.6V1.9z"/>
</svg>
